<?xml version="1.0" standalone="no"?>
<!DOCTYPE svg PUBLIC "-//W3C//DTD SVG 20010904//EN"
 "http://www.w3.org/TR/2001/REC-SVG-20010904/DTD/svg10.dtd">
<svg version="1.0" xmlns="http://www.w3.org/2000/svg"
 width="102.000000pt" height="102.000000pt" viewBox="0 0 102.000000 102.000000"
 preserveAspectRatio="xMidYMid meet">
<metadata>
Created by potrace 1.11, written by Peter Selinger 2001-2013
</metadata>
<g transform="translate(0.000000,102.000000) scale(0.100000,-0.100000)"
fill="#000000" stroke="none">
<path d="M645 946 c-109 -25 -284 -82 -300 -98 -7 -6 4 -9 30 -8 60 3 75 1 75
-9 0 -5 -6 -8 -12 -8 -25 3 -338 -105 -332 -114 5 -9 40 -4 84 14 29 12 50 18
68 19 6 1 12 5 12 10 0 4 3 7 8 7 4 -1 10 0 15 1 4 1 11 3 15 4 5 0 43 12 85
26 51 16 75 29 72 38 -5 14 7 16 21 2 7 -7 31 -2 72 14 35 14 64 24 65 24 4
-2 112 33 127 41 16 9 70 22 105 27 11 1 21 3 23 4 3 3 19 7 34 9 34 3 -9 11
-83 15 -64 4 -108 -1 -184 -18z"/>
<path d="M910 910 c-18 -18 -25 -39 -21 -62 3 -21 -18 -5 -23 17 -6 25 -20 30
-50 19 -16 -6 -14 -17 12 -74 9 -19 15 -38 14 -42 -1 -5 2 -8 6 -8 4 0 8 -27
7 -60 -1 -61 3 -67 34 -51 13 8 17 22 16 63 -1 34 8 83 25 136 20 62 24 82 13
82 -7 0 -22 -9 -33 -20z"/>
<path d="M701 837 c-8 -10 -11 -54 -9 -140 l3 -124 53 20 c48 18 52 22 52 53
0 38 1 38 -34 24 l-25 -9 1 92 c2 76 -1 92 -13 95 -9 2 -21 -4 -28 -11z"/>
<path d="M620 812 c-51 -17 -71 -34 -62 -49 4 -6 6 -61 5 -122 -1 -61 0 -111
2 -111 2 0 15 5 29 11 22 10 24 17 20 55 -3 38 0 45 25 63 37 27 33 64 -6 55
-20 -5 -24 -3 -21 12 2 11 15 24 29 30 24 11 46 59 30 68 -3 2 -26 -4 -51 -12z"/>
<path d="M390 720 c-5 -9 -9 -25 -9 -36 0 -41 -38 -240 -40 -206 -1 22 -25 30
-36 12 -11 -18 -35 -11 -35 11 0 14 10 24 30 32 24 9 30 17 30 40 0 30 1 30
-47 10 -8 -3 -13 3 -13 15 0 12 11 24 29 32 29 11 48 47 33 62 -10 10 -112
-23 -113 -36 -6 -51 -2 -249 4 -253 5 -3 44 10 87 28 58 24 80 38 84 54 7 26
46 42 46 18 0 -9 8 -13 23 -11 23 3 27 21 14 83 -3 17 -8 46 -11 65 -14 77
-22 95 -45 96 -12 1 -26 -6 -31 -16z m40 -131 c0 -5 -4 -9 -10 -9 -5 0 -10 7
-10 16 0 8 5 12 10 9 6 -3 10 -10 10 -16z"/>
<path d="M134 630 c-45 -17 -65 -74 -48 -137 4 -13 10 -20 15 -17 5 3 9 0 9
-6 0 -6 5 -8 10 -5 15 9 40 -19 30 -34 -6 -10 -11 -10 -28 0 -17 10 -23 10
-36 0 -19 -16 -20 -31 -3 -55 21 -29 71 -13 98 31 39 63 24 132 -29 136 -12 0
-24 7 -27 15 -4 10 2 12 26 7 35 -8 50 5 42 36 -7 26 -33 38 -59 29z"/>
<path d="M500 440 c0 -5 6 -10 13 -11 65 -5 125 -17 149 -30 11 -6 22 -8 25
-6 2 3 20 -1 38 -9 43 -17 149 -24 193 -12 55 15 36 27 -36 21 -55 -4 -89 0
-189 26 -123 31 -193 39 -193 21z"/>
<path d="M485 353 c-11 -2 -54 -16 -95 -30 -125 -42 -205 -43 -249 -2 -14 13
-26 18 -32 12 -13 -13 20 -42 66 -58 52 -17 106 -11 217 24 64 21 114 31 147
30 28 -1 51 -5 51 -8 0 -3 17 -7 37 -8 20 -1 39 -6 42 -11 3 -5 14 -8 24 -6 9
1 17 -1 17 -5 0 -4 8 -7 18 -8 9 -1 35 -5 57 -9 78 -14 170 -4 162 19 -2 7
-11 10 -18 8 -55 -17 -146 -6 -279 33 -59 17 -133 25 -165 19z"/>
<path d="M386 229 c-118 -40 -181 -41 -235 -6 -22 15 -43 22 -46 17 -7 -12 31
-47 65 -58 34 -12 136 -8 173 7 15 6 27 8 27 5 0 -4 6 -2 13 4 45 37 218 47
269 16 4 -3 17 -7 28 -10 26 -5 54 -12 83 -20 59 -17 177 -9 184 12 2 7 -27 9
-79 8 -67 -2 -103 3 -187 27 -130 36 -182 36 -295 -2z"/>
<path d="M115 124 c-15 -15 -13 -18 21 -39 22 -13 32 -25 26 -29 -6 -4 -20 2
-32 14 -11 11 -20 19 -21 18 0 -2 -2 -12 -3 -23 -3 -29 54 -32 79 -5 18 20 18
21 -1 35 -10 8 -25 15 -33 15 -7 0 -11 6 -7 15 7 20 -8 19 -29 -1z"/>
<path d="M171 118 c5 -10 12 -18 14 -18 3 0 5 8 5 18 0 10 -7 19 -14 19 -11 0
-13 -5 -5 -19z"/>
<path d="M220 107 c0 -20 -3 -42 -6 -51 -5 -12 0 -15 20 -14 21 2 24 6 19 26
-5 21 -3 23 14 18 16 -5 22 -1 27 16 9 34 8 38 -9 38 -8 0 -15 -5 -15 -11 0
-5 5 -7 10 -4 6 3 10 2 10 -3 0 -9 -22 -22 -36 -22 -3 0 -4 8 -2 17 2 10 -4
19 -14 21 -15 3 -18 -3 -18 -31z"/>
<path d="M330 118 c4 -47 1 -56 -20 -51 -12 3 -20 0 -20 -6 0 -7 -4 -9 -10 -6
-5 3 -10 1 -10 -4 0 -15 23 -14 38 1 7 7 12 8 12 2 0 -5 11 -11 25 -12 23 -2
25 1 19 24 -7 26 -6 26 14 8 12 -10 19 -21 16 -26 -3 -4 6 -7 20 -6 31 3 32 6
6 28 -18 15 -18 19 -5 30 12 10 13 16 4 26 -14 17 -35 18 -45 2 -4 -7 -3 -8 4
-4 7 4 12 3 12 -3 0 -20 -22 -22 -27 -2 -7 29 -35 27 -33 -1z"/>
<path d="M450 130 c0 -12 38 -90 44 -90 5 0 56 86 56 94 0 3 -7 6 -16 6 -8 0
-12 -4 -9 -10 3 -5 1 -19 -6 -31 -11 -21 -12 -22 -22 -3 -7 10 -12 23 -12 29
0 14 -35 19 -35 5z"/>
<path d="M575 129 c-3 -4 -1 -10 4 -13 5 -3 6 -21 1 -40 -7 -33 -6 -35 21 -34
16 1 26 5 22 11 -11 18 -12 61 -2 73 7 8 2 12 -16 12 -14 0 -28 -4 -30 -9z"/>
<path d="M664 132 c-6 -4 -16 -17 -23 -29 -9 -19 -8 -25 11 -42 23 -22 58 -24
76 -5 8 9 3 11 -21 10 -26 -1 -33 3 -35 20 -2 12 4 29 13 38 12 12 13 16 3 16
-7 0 -18 -4 -24 -8z"/>
<path d="M713 124 c0 -7 6 -15 14 -18 8 -3 13 2 13 13 0 10 -6 18 -13 18 -8 0
-14 -6 -14 -13z"/>
<path d="M762 99 c-1 -22 -4 -45 -7 -49 -3 -5 15 -8 41 -8 31 0 47 4 51 15 5
11 8 12 14 2 12 -20 59 -22 80 -3 25 23 24 32 -6 40 -30 8 -55 34 -32 34 9 0
19 -5 22 -10 9 -14 27 -12 23 2 -2 6 -18 13 -36 15 -23 3 -33 -1 -42 -17 -10
-19 -8 -23 19 -33 31 -12 38 -21 22 -31 -5 -3 -14 1 -21 8 -11 15 -49 13 -59
-2 -10 -13 -36 -8 -36 8 0 8 8 14 18 14 9 -1 17 5 17 13 0 8 -8 13 -17 11 -12
-2 -18 3 -17 15 1 10 -5 17 -15 17 -14 0 -18 -9 -19 -41z"/>
<path d="M820 130 c19 -13 30 -13 30 0 0 6 -10 10 -22 10 -19 0 -20 -2 -8 -10z"/>
</g>
</svg>
